<?xml version="1.0" encoding="UTF-8" standalone="no"?>
<!DOCTYPE svg PUBLIC "-//W3C//DTD SVG 1.1//EN" "http://www.w3.org/Graphics/SVG/1.1/DTD/svg11.dtd">
<svg width="100%" height="100%" viewBox="0 0 720 720" version="1.1" xmlns="http://www.w3.org/2000/svg" xmlns:xlink="http://www.w3.org/1999/xlink" xml:space="preserve" xmlns:serif="http://www.serif.com/" style="fill-rule:evenodd;clip-rule:evenodd;stroke-linejoin:round;stroke-miterlimit:2;">
    <g id="Artboard1" transform="matrix(0.935098,0,0,1.14283,-65.4568,0)">
        <rect x="70" y="0" width="770" height="630" style="fill:none;"/>
        <g transform="matrix(1.06941,0,0,0.875018,-22.1372,30.6423)">
            <path d="M552.5,38.5C623.047,36.579 691.38,47.745 757.5,72C767.695,76.512 776.529,83.012 784,91.5C788.026,119.349 787.026,147.015 781,174.5C767.587,228.801 744.587,278.468 712,323.5C687.883,350.417 661.049,373.917 631.5,394C581.177,421.672 527.51,439.672 470.5,448C454.65,449.167 438.817,450.334 423,451.5C394.456,449.663 365.956,447.163 337.5,444C340.758,443.788 343.924,443.288 347,442.5C347.333,442.833 347.667,443.167 348,443.5C380.881,443.523 413.714,441.69 446.5,438C477.611,432.889 508.611,427.223 539.5,421C561.658,412.725 583.658,404.059 605.5,395C624.512,385.167 642.512,373.834 659.5,361C679.882,338.758 695.048,313.258 705,284.5C713.382,261.306 720.048,237.639 725,213.5C730.934,187.708 728.6,162.708 718,138.5C715.949,133.786 713.115,129.619 709.5,126C701.332,120.748 692.999,115.748 684.5,111C648.003,98.967 610.67,90.634 572.5,86C543.215,83.48 513.882,82.48 484.5,83C456.801,86.073 429.468,91.073 402.5,98C331.463,122.836 266.796,158.503 208.5,205C187.167,223.667 165.833,242.333 144.5,261C128.213,277.614 113.046,295.114 99,313.5C100.774,306.933 103.441,300.599 107,294.5C119.835,273.493 133.168,252.827 147,232.5C161.714,213.446 177.548,195.279 194.5,178C209.126,166.376 223.459,154.376 237.5,142C263.001,124.744 289.334,108.744 316.5,94C341.399,84.05 366.399,74.383 391.5,65C427.867,55.927 464.534,48.26 501.5,42C518.65,40.782 535.65,39.615 552.5,38.5Z" style="fill:rgb(196,196,196);"/>
        </g>
        <g transform="matrix(1.06941,0,0,0.875018,-22.1372,30.6423)">
            <path d="M418.5,144.5C515.154,138.32 559.987,183.32 553,279.5C545.494,335 513.661,365.5 457.5,371C360.764,377.549 316.098,332.715 323.5,236.5C331.439,181.359 363.106,150.692 418.5,144.5ZM371.5,238.5C390.008,234.832 407.508,228.498 424,219.5C424.5,255.832 424.667,292.165 424.5,328.5L460.5,328.5L460.5,186.5C451.494,186.334 442.494,186.5 433.5,187C415.894,199.635 396.561,208.801 375.5,214.5C387.771,179.007 412.771,163.841 450.5,169C466.152,171.311 478.986,178.478 489,190.5C501.615,211.123 507.448,233.623 506.5,258C506.483,278.507 502.483,298.174 494.5,317C484.731,334.09 470.064,344.09 450.5,347C407.813,351.606 381.98,333.106 373,291.5C372.201,280.447 371.035,269.447 369.5,258.5C371.048,251.923 371.715,245.256 371.5,238.5Z" style="fill:rgb(87,203,106);fill-opacity:0.98;"/>
        </g>
        <g transform="matrix(1.06941,0,0,0.875018,-22.1372,30.6423)">
            <path d="M371.5,238.5C370.355,234.689 370.188,230.689 371,226.5C371.822,222.236 373.322,218.236 375.5,214.5C396.561,208.801 415.894,199.635 433.5,187C442.494,186.5 451.494,186.334 460.5,186.5L460.5,328.5L424.5,328.5C424.667,292.165 424.5,255.832 424,219.5C407.508,228.498 390.008,234.832 371.5,238.5Z" style="fill:rgb(153,227,165);fill-opacity:0.97;"/>
        </g>
        <g transform="matrix(1.06941,0,0,0.875018,-22.1372,30.6423)">
            <path d="M254.5,445.5L260.5,445.5C260.333,486.835 260.5,528.168 261,569.5C260.279,580.612 265.446,585.945 276.5,585.5C276.16,591.208 275.493,596.875 274.5,602.5C262.617,603.962 252.784,600.295 245,591.5C243.601,588.637 242.601,585.637 242,582.5C241.333,537.833 241.333,493.167 242,448.5C246.273,447.544 250.44,446.544 254.5,445.5Z" style="fill:rgb(199,200,199);fill-opacity:0.98;"/>
        </g>
        <g transform="matrix(1.06941,0,0,0.875018,-22.1372,30.6423)">
            <path d="M157.5,458.5C176.021,456.365 193.688,459.198 210.5,467C211.059,467.725 211.392,468.558 211.5,469.5C209.536,474.422 207.869,479.422 206.5,484.5C198.821,481.108 190.821,478.608 182.5,477C150.682,473.159 131.849,486.992 126,518.5C123.611,534.924 125.945,550.591 133,565.5C139.441,575.807 148.608,582.307 160.5,585C171.591,585.95 182.591,585.45 193.5,583.5L193.5,532.5L212.5,532.5L212.5,598.5C193.754,603.059 174.754,604.559 155.5,603C132.283,598.65 116.45,585.484 108,563.5C103.719,548.12 102.386,532.453 104,516.5C108.963,485.046 126.796,465.712 157.5,458.5Z" style="fill:rgb(199,200,199);fill-opacity:0.95;"/>
        </g>
        <g transform="matrix(1.06941,0,0,0.875018,-22.1372,30.6423)">
            <path d="M315.5,493.5C326.97,492.876 338.304,493.709 349.5,496C360.946,501.123 367.446,509.956 369,522.5C369.5,548.165 369.667,573.831 369.5,599.5C352.263,602.175 334.929,603.008 317.5,602C295.014,597.233 285.848,583.399 290,560.5C292.643,550.522 298.809,543.689 308.5,540C322.705,535.955 337.038,535.455 351.5,538.5C351.813,530.087 349.646,522.421 345,515.5C339.442,511.128 333.109,509.462 326,510.5C318.652,510.253 311.485,511.253 304.5,513.5C303.558,513.392 302.725,513.059 302,512.5C300.919,507.53 300.586,502.53 301,497.5C305.845,495.838 310.679,494.505 315.5,493.5ZM324.5,552.5C331.841,552.334 339.174,552.5 346.5,553C348.101,553.273 349.601,553.773 351,554.5C351.832,564.517 351.666,574.517 350.5,584.5C341.215,585.64 331.881,585.806 322.5,585C311.307,582.133 307.141,574.967 310,563.5C310.883,560.898 312.383,558.731 314.5,557C317.815,555.17 321.149,553.67 324.5,552.5Z" style="fill:rgb(199,200,199);fill-opacity:0.95;"/>
        </g>
        <g transform="matrix(1.06941,0,0,0.875018,-22.1372,30.6423)">
            <path d="M548.5,493.5C561.455,492.611 574.122,493.944 586.5,497.5C586.027,503.223 584.694,508.723 582.5,514C543.771,503.38 526.271,518.214 530,558.5C531.859,572.689 539.692,581.523 553.5,585C564.484,586.419 575.151,585.253 585.5,581.5C587.087,585.85 588.087,590.35 588.5,595C588.325,596.658 587.658,597.991 586.5,599C574.029,602.27 561.362,603.27 548.5,602C521.296,594.438 508.296,576.438 509.5,548C509.201,520.036 522.201,501.869 548.5,493.5Z" style="fill:rgb(199,200,199);fill-opacity:0.93;"/>
        </g>
        <g transform="matrix(1.06941,0,0,0.875018,-22.1372,30.6423)">
            <path d="M640.5,493.5C670.734,489.675 688.234,502.675 693,532.5C693.5,539.492 693.666,546.492 693.5,553.5L622.5,553.5C623.608,575.982 635.441,586.648 658,585.5C661.833,585.333 665.667,585.167 669.5,585C674.493,583.723 679.493,582.556 684.5,581.5C685.219,585.645 685.885,589.812 686.5,594C686.441,595.436 686.108,596.769 685.5,598C667.568,603.511 649.568,603.844 631.5,599C615.082,591.345 605.582,578.512 603,560.5C600.286,543.863 602.952,528.196 611,513.5C618.464,503.196 628.298,496.529 640.5,493.5ZM643.5,510.5C663.456,509.122 673.456,518.455 673.5,538.5L623.5,538.5C624.482,524.886 631.148,515.553 643.5,510.5Z" style="fill:rgb(199,200,199);fill-opacity:0.95;"/>
        </g>
        <g transform="matrix(1.06941,0,0,0.875018,-22.1372,30.6423)">
            <path d="M740.5,493.5C753.365,492.73 766.032,493.896 778.5,497C779.287,502.762 778.62,508.429 776.5,514C772.147,513.446 767.814,512.446 763.5,511C755.293,509.851 747.293,510.518 739.5,513C733.169,518.855 732.835,525.188 738.5,532C749.297,537.38 760.297,542.38 771.5,547C784.095,555.132 788.595,566.632 785,581.5C783.078,587.525 779.578,592.359 774.5,596C769.184,598.994 763.518,600.994 757.5,602C748.167,602.667 738.833,602.667 729.5,602C724.342,601.281 719.342,599.948 714.5,598C713.376,597.161 712.709,595.994 712.5,594.5C713.269,590.155 714.102,585.821 715,581.5C715.561,580.978 716.228,580.645 717,580.5C730.478,585.681 744.311,586.848 758.5,584C765.053,581.27 767.22,576.437 765,569.5C764.208,567.413 763.041,565.579 761.5,564C749.289,557.728 736.956,551.728 724.5,546C715.333,537.826 712.166,527.66 715,515.5C719.391,503.267 727.891,495.934 740.5,493.5Z" style="fill:rgb(199,200,199);fill-opacity:0.93;"/>
        </g>
        <g transform="matrix(1.06941,0,0,0.875018,-22.1372,30.6423)">
            <path d="M424.5,494.5C434.506,494.334 444.506,494.5 454.5,495C472.131,499.298 481.964,510.465 484,528.5C484.5,552.498 484.667,576.498 484.5,600.5L465.5,600.5C465.827,577.812 465.327,555.145 464,532.5C463.719,521.895 458.553,515.062 448.5,512C438.814,511.342 429.148,511.508 419.5,512.5L419.5,600.5L400.5,600.5C400.333,566.832 400.5,533.165 401,499.5C408.834,497.338 416.667,495.671 424.5,494.5Z" style="fill:rgb(199,200,199);fill-opacity:0.98;"/>
        </g>
    </g>
</svg>
